<?xml version="1.0" encoding="utf-8"?>
<svg xmlns="http://www.w3.org/2000/svg" viewBox="78.1217 31.558 705.2474 371.7499" width="705.247px" height="371.75px">
    <defs>
        <clipPath id="13a11143d7">
            <path d="M 0.199219 300 L 395 300 L 395 854 L 0.199219 854 Z M 0.199219 300 " clip-rule="nonzero"/>
        </clipPath>
        <clipPath id="86ad9c4784">
            <path d="M 0.199219 567 L 305 567 L 305 866 L 0.199219 866 Z M 0.199219 567 " clip-rule="nonzero"/>
        </clipPath>
        <clipPath id="15d188ab85">
            <rect x="0" width="372" y="0" height="177"/>
        </clipPath>
        <clipPath id="1926861637">
            <rect x="0" width="47" y="0" height="216"/>
        </clipPath>
        <clipPath id="c1b6abeee6">
            <path d="M 88.707031 736.800781 L 92.082031 736.800781 L 92.082031 745.234375 L 88.707031 745.234375 Z M 88.707031 736.800781 " clip-rule="nonzero"/>
        </clipPath>
        <clipPath id="774034864a">
            <path d="M 92.03125 737.933594 C 91.65625 744.90625 91.128906 745.207031 90.753906 745.207031 C 90.304688 745.207031 89.40625 744.683594 89.179688 744.308594 C 88.957031 743.933594 89.03125 743.257812 89.332031 742.882812 C 89.554688 742.507812 90.53125 742.207031 90.980469 742.285156 C 91.429688 742.359375 91.878906 742.882812 92.03125 743.257812 C 92.105469 743.707031 91.953125 744.308594 91.730469 744.683594 C 91.429688 744.980469 90.832031 745.28125 90.457031 745.207031 C 89.929688 745.132812 89.332031 744.605469 89.105469 744.007812 C 88.582031 742.734375 88.582031 738.609375 89.257812 737.5625 C 89.554688 737.035156 90.304688 736.734375 90.753906 736.8125 C 91.203125 736.886719 92.03125 737.933594 92.03125 737.933594 " clip-rule="nonzero"/>
        </clipPath>
        <clipPath id="0a23a1e1b6">
            <rect x="0" width="5" y="0" height="10"/>
        </clipPath>
        <clipPath id="0616de3303">
            <path d="M 0.707031 0.800781 L 4.082031 0.800781 L 4.082031 9.234375 L 0.707031 9.234375 Z M 0.707031 0.800781 " clip-rule="nonzero"/>
        </clipPath>
        <clipPath id="77be0652bd">
            <path d="M 4.03125 1.933594 C 3.65625 8.90625 3.128906 9.207031 2.753906 9.207031 C 2.304688 9.207031 1.40625 8.683594 1.179688 8.308594 C 0.957031 7.933594 1.03125 7.257812 1.332031 6.882812 C 1.554688 6.507812 2.53125 6.207031 2.980469 6.285156 C 3.429688 6.359375 3.878906 6.882812 4.03125 7.257812 C 4.105469 7.707031 3.953125 8.308594 3.730469 8.683594 C 3.429688 8.980469 2.832031 9.28125 2.457031 9.207031 C 1.929688 9.132812 1.332031 8.605469 1.105469 8.007812 C 0.582031 6.734375 0.582031 2.609375 1.257812 1.5625 C 1.554688 1.035156 2.304688 0.734375 2.753906 0.8125 C 3.203125 0.886719 4.03125 1.933594 4.03125 1.933594 " clip-rule="nonzero"/>
        </clipPath>
        <clipPath id="842380980a">
            <path d="M 88.375 736.863281 L 93.691406 736.863281 L 93.691406 748.589844 L 88.375 748.589844 Z M 88.375 736.863281 " clip-rule="nonzero"/>
        </clipPath>
        <clipPath id="34a88c4ef7">
            <path d="M 90.832031 737.109375 C 92.929688 740.558594 93.902344 745.355469 93.605469 746.929688 C 93.527344 747.753906 93.152344 748.355469 92.703125 748.503906 C 92.253906 748.730469 90.90625 748.128906 90.753906 747.679688 C 90.605469 747.230469 91.28125 745.957031 91.730469 745.730469 C 92.105469 745.507812 92.777344 745.730469 93.078125 745.957031 C 93.378906 746.257812 93.679688 746.855469 93.679688 747.304688 C 93.605469 747.679688 93.230469 748.28125 92.855469 748.429688 C 92.480469 748.65625 91.578125 748.65625 91.054688 748.207031 C 89.78125 747.082031 88.132812 739.808594 88.429688 738.160156 C 88.507812 737.484375 88.804688 737.109375 89.179688 736.960938 C 89.554688 736.734375 90.832031 737.109375 90.832031 737.109375 " clip-rule="nonzero"/>
        </clipPath>
        <clipPath id="01043e538a">
            <rect x="0" width="6" y="0" height="13"/>
        </clipPath>
        <clipPath id="d37fb634d6">
            <path d="M 0.375 0.863281 L 5.691406 0.863281 L 5.691406 12.589844 L 0.375 12.589844 Z M 0.375 0.863281 " clip-rule="nonzero"/>
        </clipPath>
        <clipPath id="0ca6107d7f">
            <path d="M 2.832031 1.109375 C 4.929688 4.558594 5.902344 9.355469 5.605469 10.929688 C 5.527344 11.753906 5.152344 12.355469 4.703125 12.503906 C 4.253906 12.730469 2.90625 12.128906 2.753906 11.679688 C 2.605469 11.230469 3.28125 9.957031 3.730469 9.730469 C 4.105469 9.507812 4.777344 9.730469 5.078125 9.957031 C 5.378906 10.257812 5.679688 10.855469 5.679688 11.304688 C 5.605469 11.679688 5.230469 12.28125 4.855469 12.429688 C 4.480469 12.65625 3.578125 12.65625 3.054688 12.207031 C 1.78125 11.082031 0.132812 3.808594 0.429688 2.160156 C 0.507812 1.484375 0.804688 1.109375 1.179688 0.960938 C 1.554688 0.734375 2.832031 1.109375 2.832031 1.109375 " clip-rule="nonzero"/>
        </clipPath>
        <clipPath id="38fe26f279">
            <path d="M 87 732.867188 L 94.625 732.867188 L 94.625 751.839844 L 87 751.839844 Z M 87 732.867188 " clip-rule="nonzero"/>
        </clipPath>
        <clipPath id="ba904dd76d">
            <path d="M 92.480469 736.8125 C 92.777344 744.230469 94.128906 746.78125 94.054688 747.90625 C 93.980469 748.503906 93.753906 748.953125 93.453125 749.179688 C 93.078125 749.480469 92.554688 749.703125 92.03125 749.480469 C 91.054688 748.953125 89.78125 745.355469 88.957031 743.109375 C 88.054688 740.710938 86.78125 737.1875 87.082031 735.613281 C 87.230469 734.863281 87.757812 734.113281 88.207031 733.960938 C 88.730469 733.886719 89.40625 734.261719 90.003906 734.9375 C 91.503906 736.660156 94.578125 744.90625 94.503906 747.15625 C 94.429688 748.054688 94.128906 748.804688 93.679688 748.953125 C 93.152344 749.105469 92.105469 748.65625 91.65625 747.980469 C 90.90625 747.082031 91.355469 745.058594 90.90625 743.257812 C 90.304688 740.785156 87.757812 736.585938 87.832031 734.785156 C 87.832031 733.960938 88.207031 733.210938 88.65625 732.988281 C 89.105469 732.839844 90.082031 733.0625 90.53125 733.585938 C 91.578125 734.785156 91.203125 739.058594 91.878906 741.832031 C 92.554688 744.605469 94.878906 748.730469 94.429688 750.304688 C 94.203125 751.128906 93.378906 751.804688 92.855469 751.804688 C 92.40625 751.878906 91.578125 751.128906 91.503906 750.679688 C 91.429688 750.15625 92.179688 748.953125 92.703125 748.878906 C 93.152344 748.804688 94.277344 749.703125 94.429688 750.15625 C 94.578125 750.527344 94.203125 751.203125 93.902344 751.503906 C 93.605469 751.730469 92.929688 751.878906 92.554688 751.804688 C 92.179688 751.652344 91.878906 751.429688 91.503906 750.828125 C 90.605469 749.40625 89.40625 744.457031 88.804688 741.535156 C 88.207031 738.910156 87.308594 735.460938 87.757812 734.113281 C 87.980469 733.4375 88.507812 732.988281 89.03125 732.914062 C 89.480469 732.839844 90.082031 733.0625 90.53125 733.585938 C 91.65625 734.863281 92.855469 739.210938 93.527344 741.757812 C 94.054688 743.933594 94.878906 746.707031 94.503906 747.90625 C 94.351562 748.429688 94.054688 748.804688 93.679688 748.953125 C 93.230469 749.105469 92.554688 749.105469 91.953125 748.65625 C 90.378906 747.230469 86.558594 737.335938 87.082031 735.238281 C 87.308594 734.488281 88.054688 733.960938 88.582031 733.960938 C 89.03125 733.886719 89.480469 734.261719 90.003906 734.9375 C 91.28125 736.734375 94.128906 745.882812 94.054688 747.90625 C 93.980469 748.582031 93.753906 748.953125 93.453125 749.179688 C 93.078125 749.480469 92.480469 749.628906 92.03125 749.480469 C 91.503906 749.179688 90.980469 748.128906 90.53125 747.007812 C 89.855469 745.132812 89.179688 741.082031 89.332031 738.910156 C 89.40625 737.484375 89.628906 735.761719 90.230469 735.386719 C 90.679688 735.085938 91.578125 735.238281 91.953125 735.535156 C 92.253906 735.761719 92.480469 736.8125 92.480469 736.8125 " clip-rule="nonzero"/>
        </clipPath>
        <clipPath id="685d0f9a4e">
            <rect x="0" width="8" y="0" height="20"/>
        </clipPath>
        <clipPath id="5c6fdfa960">
            <path d="M 0 0.867188 L 7.625 0.867188 L 7.625 19.839844 L 0 19.839844 Z M 0 0.867188 " clip-rule="nonzero"/>
        </clipPath>
        <clipPath id="c5c7188cbb">
            <path d="M 5.480469 4.8125 C 5.777344 12.230469 7.128906 14.78125 7.054688 15.90625 C 6.980469 16.503906 6.753906 16.953125 6.453125 17.179688 C 6.078125 17.480469 5.554688 17.703125 5.03125 17.480469 C 4.054688 16.953125 2.78125 13.355469 1.957031 11.109375 C 1.054688 8.710938 -0.21875 5.1875 0.0820312 3.613281 C 0.230469 2.863281 0.757812 2.113281 1.207031 1.960938 C 1.730469 1.886719 2.40625 2.261719 3.003906 2.9375 C 4.503906 4.660156 7.578125 12.90625 7.503906 15.15625 C 7.429688 16.054688 7.128906 16.804688 6.679688 16.953125 C 6.152344 17.105469 5.105469 16.65625 4.65625 15.980469 C 3.90625 15.082031 4.355469 13.058594 3.90625 11.257812 C 3.304688 8.785156 0.757812 4.585938 0.832031 2.785156 C 0.832031 1.960938 1.207031 1.210938 1.65625 0.988281 C 2.105469 0.839844 3.082031 1.0625 3.53125 1.585938 C 4.578125 2.785156 4.203125 7.058594 4.878906 9.832031 C 5.554688 12.605469 7.878906 16.730469 7.429688 18.304688 C 7.203125 19.128906 6.378906 19.804688 5.855469 19.804688 C 5.40625 19.878906 4.578125 19.128906 4.503906 18.679688 C 4.429688 18.15625 5.179688 16.953125 5.703125 16.878906 C 6.152344 16.804688 7.277344 17.703125 7.429688 18.15625 C 7.578125 18.527344 7.203125 19.203125 6.902344 19.503906 C 6.605469 19.730469 5.929688 19.878906 5.554688 19.804688 C 5.179688 19.652344 4.878906 19.429688 4.503906 18.828125 C 3.605469 17.40625 2.40625 12.457031 1.804688 9.535156 C 1.207031 6.910156 0.308594 3.460938 0.757812 2.113281 C 0.980469 1.4375 1.507812 0.988281 2.03125 0.914062 C 2.480469 0.839844 3.082031 1.0625 3.53125 1.585938 C 4.65625 2.863281 5.855469 7.210938 6.527344 9.757812 C 7.054688 11.933594 7.878906 14.707031 7.503906 15.90625 C 7.351562 16.429688 7.054688 16.804688 6.679688 16.953125 C 6.230469 17.105469 5.554688 17.105469 4.953125 16.65625 C 3.378906 15.230469 -0.441406 5.335938 0.0820312 3.238281 C 0.308594 2.488281 1.054688 1.960938 1.582031 1.960938 C 2.03125 1.886719 2.480469 2.261719 3.003906 2.9375 C 4.28125 4.734375 7.128906 13.882812 7.054688 15.90625 C 6.980469 16.582031 6.753906 16.953125 6.453125 17.179688 C 6.078125 17.480469 5.480469 17.628906 5.03125 17.480469 C 4.503906 17.179688 3.980469 16.128906 3.53125 15.007812 C 2.855469 13.132812 2.179688 9.082031 2.332031 6.910156 C 2.40625 5.484375 2.628906 3.761719 3.230469 3.386719 C 3.679688 3.085938 4.578125 3.238281 4.953125 3.535156 C 5.253906 3.761719 5.480469 4.8125 5.480469 4.8125 " clip-rule="nonzero"/>
        </clipPath>
    </defs>
    <g clip-path="url(#13a11143d7)" transform="matrix(1, 0, 0, 1, 77.92243957519531, -366.5948791503906)">
        <path stroke-linecap="butt" transform="matrix(-0.705138, 0.254412, -0.254412, -0.705138, 319.938938, 666.24603)" fill="none" stroke-linejoin="miter" d="M 42.70904 6.09148 C -43.377317 510.914408 54.52509 510.916301 336.434505 6.092659 " stroke="currentColor" stroke-width="25" stroke-opacity="1" stroke-miterlimit="4"/>
    </g>
    <g clip-path="url(#86ad9c4784)" transform="matrix(1, 0, 0, 1, 77.92243957519531, -366.5948791503906)">
        <path stroke-linecap="butt" transform="matrix(0.655537, -0.363615, 0.363615, 0.655537, 67.946466, 735.875864)" fill="none" stroke-linejoin="miter" d="M 12.50441 11.046262 C 12.057535 74.772634 72.026621 74.774094 192.402554 11.045587 " stroke="currentColor" stroke-width="25" stroke-opacity="1" stroke-miterlimit="4"/>
    </g>
    <path fill="currentColor" d="M 268.618 285.601 C 271.738 270.05 273.178 252.062 272.938 231.636 L 291.678 231.413 C 291.938 253.155 290.368 272.448 286.988 289.292 L 268.618 285.601 Z M 272.308 213.327 C 271.398 196.968 269.538 179.269 266.738 160.233 L 285.278 157.503 C 288.168 177.101 290.078 195.362 291.018 212.284 L 272.308 213.327 Z M 272.308 213.327" fill-opacity="1" fill-rule="nonzero" style="stroke-width: 1;"/>
    <g transform="matrix(1, 0, 0, 1, 384.92242431640625, 159.40509033203125)">
        <g clip-path="url(#15d188ab85)">
            <g fill="currentColor" fill-opacity="1">
                <g transform="translate(0.871627, 139.259407)">
                    <g>
                        <path d="M 30.5625 0 L 9.25 0 L 9.25 -112.84375 L 30.5625 -112.84375 Z M 30.5625 0 "/>
                    </g>
                </g>
            </g>
            <g fill="currentColor" fill-opacity="1">
                <g transform="translate(40.762146, 139.259407)">
                    <g>
                        <path d="M 30.5625 0 L 9.25 0 L 9.25 -112.84375 L 30.5625 -112.84375 Z M 30.5625 0 "/>
                    </g>
                </g>
            </g>
            <g fill="currentColor" fill-opacity="1">
                <g transform="translate(80.652666, 139.259407)">
                    <g>
                        <path d="M 79.703125 -39.015625 C 79.703125 -26.765625 76.921875 -16.953125 71.359375 -9.578125 C 65.804688 -2.210938 58.304688 1.46875 48.859375 1.46875 C 40.828125 1.46875 34.335938 -1.320312 29.390625 -6.90625 L 29.390625 30.5625 L 8.15625 30.5625 L 8.15625 -79.484375 L 27.84375 -79.484375 L 28.578125 -71.703125 C 33.722656 -77.867188 40.429688 -80.953125 48.703125 -80.953125 C 58.503906 -80.953125 66.117188 -77.328125 71.546875 -70.078125 C 76.984375 -62.835938 79.703125 -52.847656 79.703125 -40.109375 Z M 58.484375 -40.546875 C 58.484375 -47.941406 57.171875 -53.644531 54.546875 -57.65625 C 51.921875 -61.675781 48.113281 -63.6875 43.125 -63.6875 C 36.457031 -63.6875 31.878906 -61.140625 29.390625 -56.046875 L 29.390625 -23.515625 C 31.984375 -18.265625 36.609375 -15.640625 43.265625 -15.640625 C 53.410156 -15.640625 58.484375 -23.941406 58.484375 -40.546875 Z M 58.484375 -40.546875 "/>
                    </g>
                </g>
            </g>
            <g fill="currentColor" fill-opacity="1">
                <g transform="translate(165.355717, 139.259407)">
                    <g>
                        <path d="M 55.765625 -8.078125 C 50.515625 -1.710938 43.265625 1.46875 34.015625 1.46875 C 25.492188 1.46875 18.988281 -0.976562 14.5 -5.875 C 10.019531 -10.769531 7.734375 -17.945312 7.640625 -27.40625 L 7.640625 -79.484375 L 28.875 -79.484375 L 28.875 -28.140625 C 28.875 -19.859375 32.644531 -15.71875 40.1875 -15.71875 C 47.382812 -15.71875 52.332031 -18.21875 55.03125 -23.21875 L 55.03125 -79.484375 L 76.328125 -79.484375 L 76.328125 0 L 56.34375 0 Z M 55.765625 -8.078125 "/>
                    </g>
                </g>
            </g>
            <g fill="currentColor" fill-opacity="1">
                <g transform="translate(249.544506, 139.259407)">
                    <g>
                        <path d="M 44.734375 1.46875 C 33.078125 1.46875 23.585938 -2.101562 16.265625 -9.25 C 8.953125 -16.40625 5.296875 -25.929688 5.296875 -37.828125 L 5.296875 -39.890625 C 5.296875 -47.867188 6.835938 -55.003906 9.921875 -61.296875 C 13.003906 -67.597656 17.375 -72.445312 23.03125 -75.84375 C 28.6875 -79.25 35.140625 -80.953125 42.390625 -80.953125 C 53.265625 -80.953125 61.820312 -77.523438 68.0625 -70.671875 C 74.3125 -63.816406 77.4375 -54.09375 77.4375 -41.5 L 77.4375 -32.84375 L 26.8125 -32.84375 C 27.5 -27.644531 29.566406 -23.476562 33.015625 -20.34375 C 36.472656 -17.207031 40.847656 -15.640625 46.140625 -15.640625 C 54.316406 -15.640625 60.707031 -18.601562 65.3125 -24.53125 L 75.734375 -12.859375 C 72.554688 -8.347656 68.25 -4.832031 62.8125 -2.3125 C 57.375 0.207031 51.347656 1.46875 44.734375 1.46875 Z M 42.3125 -63.765625 C 38.101562 -63.765625 34.6875 -62.34375 32.0625 -59.5 C 29.445312 -56.664062 27.769531 -52.601562 27.03125 -47.3125 L 56.5625 -47.3125 L 56.5625 -49 C 56.46875 -53.695312 55.195312 -57.332031 52.75 -59.90625 C 50.300781 -62.476562 46.820312 -63.765625 42.3125 -63.765625 Z M 42.3125 -63.765625 "/>
                    </g>
                </g>
            </g>
            <g fill="currentColor" fill-opacity="1">
                <g transform="translate(330.868252, 139.259407)">
                    <g>
                        <path d="M 30.5625 0 L 9.25 0 L 9.25 -112.84375 L 30.5625 -112.84375 Z M 30.5625 0 "/>
                    </g>
                </g>
            </g>
        </g>
    </g>
    <g transform="matrix(1, 0, 0, 1, 745.9224853515625, 141.40509033203125)">
        <g clip-path="url(#1926861637)">
            <g fill="#ff3131" fill-opacity="1">
                <g transform="translate(46.477836, 46.555694)">
                    <g>
                        <path d="M -32.109375 37.421875 L -13.28125 37.421875 L -9.34375 112.828125 L -36.03125 112.828125 Z M -9.03125 11.03125 C -9.03125 15.351562 -10.1875 18.617188 -12.5 20.828125 C -14.8125 23.046875 -18.179688 24.15625 -22.609375 24.15625 C -26.878906 24.15625 -30.179688 23.019531 -32.515625 20.75 C -34.859375 18.488281 -36.03125 15.25 -36.03125 11.03125 C -36.03125 6.96875 -34.847656 3.765625 -32.484375 1.421875 C -30.117188 -0.910156 -26.828125 -2.078125 -22.609375 -2.078125 C -18.285156 -2.078125 -14.941406 -0.9375 -12.578125 1.34375 C -10.210938 3.632812 -9.03125 6.863281 -9.03125 11.03125 Z M -9.03125 11.03125 "/>
                    </g>
                </g>
            </g>
        </g>
    </g>
    <g clip-path="url(#c1b6abeee6)" transform="matrix(1, 0, 0, 1, 77.92243957519531, -366.5948791503906)">
        <g clip-path="url(#774034864a)">
            <g transform="matrix(1, 0, 0, 1, 88, 736)">
                <g clip-path="url(#0a23a1e1b6)">
                    <g clip-path="url(#0616de3303)">
                        <g clip-path="url(#77be0652bd)">
                            <rect x="-266.2" width="1166.4" fill="currentColor" height="1457.999957" y="-958.749993" fill-opacity="1"/>
                        </g>
                    </g>
                </g>
            </g>
        </g>
    </g>
    <g clip-path="url(#842380980a)" transform="matrix(1, 0, 0, 1, 77.92243957519531, -366.5948791503906)">
        <g clip-path="url(#34a88c4ef7)">
            <g transform="matrix(1, 0, 0, 1, 88, 736)">
                <g clip-path="url(#01043e538a)">
                    <g clip-path="url(#d37fb634d6)">
                        <g clip-path="url(#0ca6107d7f)">
                            <rect x="-266.2" width="1166.4" fill="currentColor" height="1457.999957" y="-958.749993" fill-opacity="1"/>
                        </g>
                    </g>
                </g>
            </g>
        </g>
    </g>
    <g clip-path="url(#38fe26f279)" transform="matrix(1, 0, 0, 1, 77.92243957519531, -366.5948791503906)">
        <g clip-path="url(#ba904dd76d)">
            <g transform="matrix(1, 0, 0, 1, 87, 732)">
                <g clip-path="url(#685d0f9a4e)">
                    <g clip-path="url(#5c6fdfa960)">
                        <g clip-path="url(#c5c7188cbb)">
                            <rect x="-265.2" width="1166.4" fill="currentColor" height="1457.999957" y="-954.749993" fill-opacity="1"/>
                        </g>
                    </g>
                </g>
            </g>
        </g>
    </g>
</svg>